<?xml version="1.0" standalone="no"?>
<!DOCTYPE svg PUBLIC "-//W3C//DTD SVG 20010904//EN"
 "http://www.w3.org/TR/2001/REC-SVG-20010904/DTD/svg10.dtd">
<svg version="1.0" xmlns="http://www.w3.org/2000/svg"
 width="248.000000pt" height="203.000000pt" viewBox="0 0 248.000000 203.000000"
 preserveAspectRatio="xMidYMid meet">

<g transform="translate(0.000000,203.000000) scale(0.100000,-0.100000)"
fill="#000000" stroke="none">
<path d="M855 1821 c-107 -48 -166 -201 -116 -299 23 -45 51 -71 115 -105 53
-29 60 -32 51 -18 -3 5 3 12 12 14 14 4 13 5 -4 6 -50 2 -67 88 -23 111 22 12
50 3 50 -16 0 -20 18 -17 25 5 6 19 45 60 45 47 0 -4 -5 -16 -10 -27 -8 -13
-7 -19 0 -19 23 0 78 29 112 59 20 17 38 31 42 31 3 0 6 -15 7 -32 l1 -33 19
40 c10 22 19 53 19 68 1 123 -214 228 -345 168z"/>
<path d="M1492 1672 c-92 -33 -142 -100 -142 -189 0 -17 7 -38 15 -47 8 -8 16
-25 16 -38 1 -20 2 -21 6 -3 8 29 20 34 65 23 65 -14 96 -35 100 -65 4 -28 4
-28 14 6 14 49 38 61 66 34 19 -19 20 -26 10 -48 -7 -14 -20 -25 -31 -25 -14
0 -19 -5 -15 -14 9 -23 -36 -40 -101 -39 l-60 1 55 -7 55 -6 6 -60 c5 -49 6
-53 8 -20 l2 40 14 -27 c14 -26 46 -32 64 -12 3 4 -2 4 -11 1 -14 -5 -18 -1
-19 16 0 21 -1 21 -8 2 -7 -18 -8 -18 -12 5 -6 32 0 60 12 60 5 0 26 -16 47
-35 27 -25 32 -35 20 -35 -10 0 -18 -4 -18 -9 0 -5 8 -7 19 -4 23 6 37 -13 22
-31 -8 -9 -3 -22 15 -50 14 -21 24 -39 22 -42 -8 -8 -79 59 -75 71 3 6 1 18
-4 26 -6 10 -9 8 -9 -11 -1 -24 -1 -24 -15 -6 -8 11 -18 17 -21 13 -10 -10
129 -141 164 -154 23 -8 32 -8 32 0 0 6 12 25 27 41 16 17 21 25 13 19 -22
-20 -31 -15 -25 10 7 28 -16 52 -42 45 -16 -4 -18 2 -18 46 1 28 -2 60 -6 72
-6 16 3 36 32 79 45 66 54 102 47 190 -7 83 -40 144 -92 169 -58 28 -176 32
-244 8z m228 -543 c0 -6 10 -25 22 -42 l21 -32 -31 29 c-31 29 -42 56 -22 56
6 0 10 -5 10 -11z"/>
<path d="M1054 1504 c-10 -8 -12 -12 -4 -8 8 4 30 11 50 15 35 7 35 7 4 8 -16
0 -39 -6 -50 -15z"/>
<path d="M884 1491 c3 -5 16 -11 28 -14 22 -6 22 -5 4 8 -22 17 -40 20 -32 6z"/>
<path d="M1161 1484 c0 -11 3 -14 6 -6 3 7 2 16 -1 19 -3 4 -6 -2 -5 -13z"/>
<path d="M1406 1391 c-3 -4 6 -6 19 -3 14 2 25 6 25 8 0 8 -39 4 -44 -5z"/>
<path d="M830 1345 c-24 -25 -42 -45 -39 -45 3 0 25 20 49 45 24 25 42 45 39
45 -3 0 -25 -20 -49 -45z"/>
<path d="M890 1368 c-36 -25 -131 -154 -105 -145 9 4 15 1 15 -9 0 -8 5 -12
11 -8 8 4 8 9 0 17 -15 15 -14 24 4 24 14 0 19 -14 17 -47 0 -11 3 -10 14 4
12 18 19 15 15 -6 -2 -13 6 -9 20 9 10 11 10 14 2 9 -9 -5 -13 0 -13 15 0 22
-1 22 -13 4 -13 -17 -14 -17 -20 5 -3 12 -10 19 -16 15 -6 -3 -11 -1 -11 4 0
6 9 11 19 11 11 0 23 4 26 10 4 6 -1 7 -11 3 -14 -5 -15 -3 -5 15 16 29 57 56
76 48 9 -3 15 -18 15 -36 0 -17 -4 -29 -9 -26 -5 3 -12 -2 -16 -12 -7 -15 -9
-14 -14 6 l-6 22 -13 -21 c-8 -12 -9 -18 -3 -14 6 3 15 -3 19 -15 7 -20 10
-19 35 17 15 21 28 33 28 28 1 -6 5 8 8 30 4 29 2 43 -9 52 -20 17 -22 16 -60
-9z"/>
<path d="M1465 1380 c3 -5 8 -10 11 -10 2 0 4 5 4 10 0 6 -5 10 -11 10 -5 0
-7 -4 -4 -10z"/>
<path d="M1589 1363 c-12 -16 -12 -17 2 -6 9 7 18 10 21 7 3 -3 9 -1 13 5 11
18 -22 12 -36 -6z"/>
<path d="M1003 1363 c9 -2 23 -2 30 0 6 3 -1 5 -18 5 -16 0 -22 -2 -12 -5z"/>
<path d="M1058 1363 c6 -2 18 -2 25 0 6 3 1 5 -13 5 -14 0 -19 -2 -12 -5z"/>
<path d="M1371 1344 c0 -11 3 -14 6 -6 3 7 2 16 -1 19 -3 4 -6 -2 -5 -13z"/>
<path d="M662 1284 c-8 -14 -14 -15 -41 -6 -29 10 -35 9 -57 -13 -32 -32 -31
-69 3 -103 15 -15 27 -30 26 -33 -1 -3 9 -4 22 -1 17 3 27 -1 31 -12 3 -9 10
-14 15 -11 7 5 29 -24 29 -39 0 -2 -14 -4 -30 -4 -46 1 -47 -9 -1 -14 21 -2
37 0 35 4 -3 5 7 8 21 8 19 0 44 17 86 57 63 60 72 81 17 40 -56 -41 -63 -42
-33 -1 27 36 27 37 5 18 -36 -31 -55 -40 -45 -23 4 8 17 24 28 36 18 20 18 21
1 18 -11 -1 -18 -7 -17 -12 1 -4 -12 -16 -28 -25 l-30 -17 29 42 c34 51 48 75
37 65 -5 -5 -13 2 -19 15 -15 28 -70 36 -84 11z"/>
<path d="M942 1230 c0 -19 2 -27 5 -17 2 9 2 25 0 35 -3 9 -5 1 -5 -18z"/>
<path d="M930 1135 c0 -22 -4 -25 -34 -25 -26 0 -35 -5 -39 -22 -8 -29 -1 -36
8 -9 7 24 60 30 68 9 3 -7 6 6 6 30 1 23 -1 42 -4 42 -3 0 -5 -11 -5 -25z"/>
<path d="M990 1145 c0 -8 9 -19 20 -25 18 -10 20 -21 20 -109 0 -98 0 -99 -26
-105 -16 -4 -24 -13 -22 -22 2 -14 23 -16 129 -18 97 -1 122 2 110 10 -13 10
-13 16 -2 40 10 22 14 25 22 13 5 -7 9 -25 10 -39 1 -23 2 -23 9 5 4 17 8 38
9 48 2 26 -34 21 -53 -8 -14 -21 -25 -25 -61 -25 l-45 0 0 105 c0 98 1 105 20
105 13 0 20 7 20 20 0 18 -7 20 -80 20 -64 0 -80 -3 -80 -15z m30 -5 c0 -5 -4
-10 -10 -10 -5 0 -10 5 -10 10 0 6 5 10 10 10 6 0 10 -4 10 -10z m60 0 c0 -5
-4 -10 -9 -10 -6 0 -13 5 -16 10 -3 6 1 10 9 10 9 0 16 -4 16 -10z m60 6 c0
-11 -19 -15 -25 -6 -3 5 1 10 9 10 9 0 16 -2 16 -4z m-60 -46 c12 -22 5 -60
-10 -60 -20 0 -31 39 -18 60 16 25 15 25 28 0z m10 -115 c0 -6 -6 -19 -13 -29
-12 -17 -14 -16 -25 8 -9 21 -9 31 1 46 11 19 13 19 25 3 6 -9 12 -22 12 -28z
m-6 -70 c4 -11 21 -15 61 -15 30 0 55 -4 55 -10 0 -5 -45 -9 -105 -9 -65 0
-103 4 -100 9 4 6 17 10 30 10 12 0 25 7 29 15 3 8 10 15 15 15 5 0 11 -7 15
-15z"/>
<path d="M1666 1148 c3 -5 10 -6 15 -3 13 9 11 12 -6 12 -8 0 -12 -4 -9 -9z"/>
<path d="M1665 1120 c3 -5 8 -10 11 -10 2 0 4 5 4 10 0 6 -5 10 -11 10 -5 0
-7 -4 -4 -10z"/>
<path d="M1270 1100 c0 -4 7 -13 16 -20 12 -11 15 -11 12 1 -2 10 7 14 29 14
31 1 31 0 17 -27 -19 -36 -15 -35 25 8 l34 35 -67 -2 c-36 -1 -66 -5 -66 -9z"/>
<path d="M1450 1101 c0 -5 7 -11 15 -15 13 -5 12 -13 -6 -58 -12 -29 -23 -60
-23 -70 -1 -9 -8 -23 -14 -31 -7 -8 -12 -19 -11 -23 3 -20 -2 -24 -21 -14 -17
9 -19 8 -11 -12 4 -12 12 -23 18 -25 5 -2 34 49 63 113 30 64 60 118 67 121
28 11 11 23 -32 23 -25 0 -45 -4 -45 -9z"/>
<path d="M916 1043 c-6 -14 -5 -15 5 -6 7 7 10 15 7 18 -3 3 -9 -2 -12 -12z"/>
<path d="M1316 1025 c9 -22 20 -52 26 -67 10 -29 22 -35 34 -17 3 6 16 9 29 7
l22 -5 -26 58 c-23 52 -27 57 -41 44 -21 -19 -30 -19 -47 3 -10 12 -9 6 3 -23z
m39 -14 c-8 -14 -25 -14 -25 0 0 5 5 7 10 4 6 -3 10 -1 10 6 0 7 3 10 6 6 3
-3 3 -10 -1 -16z m27 -37 c-7 -12 -9 -8 -10 18 -1 26 1 30 9 16 6 -11 6 -24 1
-34z"/>
<path d="M1618 1043 c7 -3 16 -2 19 1 4 3 -2 6 -13 5 -11 0 -14 -3 -6 -6z"/>
<path d="M661 1024 c0 -11 3 -14 6 -6 3 7 2 16 -1 19 -3 4 -6 -2 -5 -13z"/>
<path d="M720 1030 c8 -5 22 -9 30 -9 10 0 8 3 -5 9 -27 12 -43 12 -25 0z"/>
<path d="M685 1020 c3 -5 11 -10 16 -10 6 0 7 5 4 10 -3 6 -11 10 -16 10 -6 0
-7 -4 -4 -10z"/>
<path d="M1640 1021 c0 -6 4 -13 10 -16 6 -3 7 1 4 9 -7 18 -14 21 -14 7z"/>
<path d="M778 1013 c6 -2 18 -2 25 0 6 3 1 5 -13 5 -14 0 -19 -2 -12 -5z"/>
<path d="M865 1010 c-16 -4 -24 -8 -17 -9 7 0 10 -6 6 -12 -3 -6 5 -3 20 6 14
10 26 19 26 21 0 2 -1 3 -2 3 -2 -1 -16 -5 -33 -9z"/>
<path d="M1591 999 c0 -15 7 -33 17 -40 15 -12 16 -12 5 1 -6 8 -13 26 -16 40
l-4 25 -2 -26z"/>
<path d="M1870 1005 c-7 -9 -20 -14 -29 -13 -9 2 -29 -7 -44 -19 -36 -28 -139
-53 -145 -35 -5 16 -20 15 -19 0 1 -7 -7 -30 -18 -51 -19 -39 -19 -39 0 -54
11 -8 32 -17 47 -20 23 -5 28 -12 34 -50 4 -28 10 -40 14 -32 5 7 4 23 -1 37
-12 31 -11 31 34 34 20 2 37 6 37 9 0 4 14 9 30 13 33 6 80 47 80 68 0 9 -3 9
-10 -2 -6 -9 -10 -10 -10 -3 0 7 9 17 20 23 16 9 19 8 14 -7 -4 -13 0 -12 15
5 23 27 16 53 -20 73 -12 6 -18 17 -15 25 7 18 2 18 -14 -1z m41 -60 c-1 -15
-24 -12 -29 3 -3 9 2 13 12 10 10 -1 17 -7 17 -13z m-46 -74 c3 -5 1 -12 -5
-16 -5 -3 -10 1 -10 9 0 18 6 21 15 7z m-122 -46 c0 -6 -8 -11 -19 -12 -10 -2
-13 0 -6 3 6 3 9 10 6 16 -4 6 -1 9 5 7 7 -3 13 -9 14 -14z"/>
<path d="M713 980 c-6 -16 -10 -30 -7 -30 2 0 10 14 19 30 9 17 12 30 7 30 -4
0 -13 -13 -19 -30z"/>
<path d="M763 993 c9 -2 25 -2 35 0 9 3 1 5 -18 5 -19 0 -27 -2 -17 -5z"/>
<path d="M821 939 c-12 -20 -21 -26 -24 -17 -3 7 -5 -12 -5 -42 1 -30 3 -41 5
-25 6 43 35 97 45 82 5 -8 8 -4 8 11 0 30 -7 28 -29 -9z"/>
<path d="M660 950 c0 -6 7 -10 15 -10 8 0 15 2 15 4 0 2 -7 6 -15 10 -8 3 -15
1 -15 -4z"/>
<path d="M1708 953 c7 -3 16 -2 19 1 4 3 -2 6 -13 5 -11 0 -14 -3 -6 -6z"/>
<path d="M663 855 c0 -27 2 -38 4 -22 2 15 2 37 0 50 -2 12 -4 0 -4 -28z"/>
<path d="M833 855 c0 -27 2 -38 4 -22 2 15 2 37 0 50 -2 12 -4 0 -4 -28z"/>
<path d="M1061 791 c-8 -5 -16 -17 -17 -26 -1 -9 -6 -20 -10 -23 -4 -4 -4 1
-1 11 10 27 -7 20 -26 -12 -34 -59 -27 -140 17 -189 33 -36 37 -37 100 -37 60
0 68 3 98 32 27 28 32 41 36 94 5 72 -12 115 -58 142 -30 18 -115 23 -139 8z
m13 -36 c-30 -40 -40 -45 -23 -12 16 31 30 47 41 47 5 0 -3 -16 -18 -35z m54
15 c-7 -11 -16 -20 -21 -20 -4 0 -3 9 3 20 6 11 15 20 20 20 6 0 5 -9 -2 -20z
m28 -8 c-17 -16 -18 -16 -5 5 7 12 15 20 18 17 3 -2 -3 -12 -13 -22z m54 2 c0
-15 -22 -44 -30 -39 -6 4 -5 14 3 25 11 19 27 27 27 14z m20 -23 c0 -5 -9 -19
-20 -32 l-19 -24 12 33 c10 30 27 44 27 23z m-69 -20 c19 -15 24 -29 24 -66 0
-37 -5 -51 -24 -66 -31 -25 -47 -24 -76 6 -27 26 -33 72 -14 108 23 42 53 48
90 18z m-155 -49 c-14 -15 -15 -13 -3 17 8 23 13 28 15 16 2 -10 -3 -25 -12
-33z m239 4 c0 -24 -10 -42 -31 -63 -17 -15 -39 -43 -48 -61 -9 -17 -21 -32
-26 -32 -17 0 -11 11 27 58 21 26 38 53 38 61 0 9 6 16 14 16 8 0 16 6 19 14
3 8 0 11 -7 7 -13 -8 -14 -4 -5 18 10 27 21 18 19 -18z m-192 7 c-3 -10 -12
-27 -20 -38 -18 -27 -16 -45 2 -21 8 11 15 15 15 9 0 -7 -4 -15 -10 -18 -5 -3
-10 -11 -10 -17 0 -6 6 -6 15 2 13 11 14 10 9 -5 -5 -13 -4 -16 4 -11 8 5 10
1 5 -10 -4 -12 -3 -15 5 -10 14 9 15 -3 2 -24 -8 -13 -10 -12 -10 3 0 10 -4
15 -10 12 -6 -4 -7 1 -3 12 6 16 5 16 -10 4 -15 -12 -17 -12 -11 4 5 13 4 16
-4 11 -7 -4 -12 -4 -13 1 0 4 -2 19 -3 32 -2 15 7 36 22 53 29 33 34 34 25 11z
m167 -108 c-17 -25 -35 -45 -40 -45 -17 0 50 89 68 90 2 0 -11 -20 -28 -45z
m-110 -49 c-14 -14 -24 0 -16 21 6 15 8 15 16 3 6 -9 5 -19 0 -24z"/>
<path d="M1307 773 c-12 -11 -8 -241 4 -249 20 -12 69 -12 69 0 0 7 7 21 15
32 15 18 15 18 8 0 -5 -15 -3 -17 8 -10 29 18 39 13 33 -14 -5 -26 -5 -26 10
-8 9 11 16 23 16 28 0 4 4 8 9 8 11 0 9 -19 -3 -38 -7 -11 -4 -12 13 -3 11 7
21 18 21 26 0 19 -36 39 -45 25 -4 -6 -11 -8 -16 -4 -23 14 -69 15 -69 2 0 -8
-7 -23 -16 -34 -15 -19 -16 -19 -8 1 4 11 10 38 13 60 5 28 11 39 21 36 24 -6
74 -8 88 -3 6 2 12 15 12 28 0 22 -4 24 -50 24 -27 0 -53 -1 -57 -2 -12 -4
-22 76 -11 87 6 6 7 3 3 -10 -6 -18 -5 -18 7 -4 7 9 21 16 31 16 19 0 23 -12
7 -22 -5 -3 -10 -1 -10 6 0 8 -4 8 -15 -1 -24 -20 -18 -27 23 -28 64 -1 82 6
82 33 0 25 -1 25 -93 25 -52 0 -97 -3 -100 -7z m16 -18 c-3 -9 -8 -14 -10 -11
-3 3 -2 9 2 15 9 16 15 13 8 -4z m12 -30 c-9 -20 -18 -35 -21 -32 -3 2 3 21
12 41 23 47 29 40 9 -9z m135 42 c0 -2 -10 -12 -21 -23 -22 -19 -22 -19 -10 4
10 18 31 31 31 19z m12 -29 c-7 -7 -12 -8 -12 -2 0 14 12 26 19 19 2 -3 -1
-11 -7 -17z m-131 -51 c-14 -14 -15 -30 -1 -22 15 9 12 -8 -6 -33 -18 -26 -34
-29 -29 -4 5 30 39 94 43 82 2 -6 -1 -17 -7 -23z m69 -32 c-7 -8 -17 -15 -22
-15 -6 0 -5 7 2 15 7 8 17 15 22 15 6 0 5 -7 -2 -15z m53 2 c3 -8 -5 -14 -21
-15 -25 -2 -25 -2 -6 13 23 18 21 17 27 2z m-132 -66 c-27 -38 -27 -50 0 -20
l21 24 -13 -23 c-8 -13 -18 -23 -24 -23 -19 0 -16 29 6 50 31 29 34 26 10 -8z"/>
<path d="M1326 643 c-6 -14 -5 -15 5 -6 7 7 10 15 7 18 -3 3 -9 -2 -12 -12z"/>
<path d="M673 735 c0 -22 2 -30 4 -17 2 12 2 30 0 40 -3 9 -5 -1 -4 -23z"/>
<path d="M1780 746 c0 -2 8 -10 18 -17 15 -13 16 -12 3 4 -13 16 -21 21 -21
13z"/>
<path d="M792 654 c-2 -76 -4 -81 -27 -92 -14 -7 -35 -12 -45 -12 -16 0 -20
-7 -20 -31 0 -31 0 -31 25 -15 27 18 65 21 65 6 0 -5 -11 -10 -25 -10 -14 0
-25 -4 -25 -10 0 -17 87 -11 124 8 34 16 51 37 21 26 -25 -10 -40 7 -20 23 23
16 3 18 -28 2 -18 -9 -20 -9 -9 2 7 8 11 36 10 68 l-1 56 -6 -44 c-10 -77 -30
-62 -34 26 l-3 78 -2 -81z m56 -128 c18 -11 4 -26 -24 -26 -14 0 -22 4 -19 10
3 6 1 10 -4 10 -6 0 -11 4 -11 9 0 11 39 9 58 -3z"/>
<path d="M1775 668 c22 -21 39 -42 38 -48 -3 -11 10 -14 20 -4 3 3 -11 20 -31
37 -57 48 -73 56 -27 15z"/>
<path d="M682 655 c0 -16 2 -22 5 -12 2 9 2 23 0 30 -3 6 -5 -1 -5 -18z"/>
<path d="M1844 660 c0 -13 4 -16 10 -10 7 7 7 13 0 20 -6 6 -10 3 -10 -10z"/>
<path d="M1721 623 c-1 -33 11 -43 25 -21 4 6 3 8 -4 4 -6 -4 -12 5 -15 21 -4
26 -4 26 -6 -4z"/>
<path d="M1913 603 c5 -27 1 -36 -33 -67 -45 -41 -60 -45 -60 -17 0 18 36 51
70 64 12 4 12 6 -2 6 -9 1 -20 -3 -23 -9 -3 -5 -15 -10 -26 -10 -10 0 -18 -3
-17 -7 0 -5 -2 -16 -6 -25 -18 -40 17 -63 48 -32 9 8 16 12 16 8 0 -4 11 3 24
15 19 18 23 30 20 59 -3 20 -7 38 -11 42 -3 3 -3 -9 0 -27z m7 -46 c0 -2 -10
-12 -22 -23 l-23 -19 19 23 c18 21 26 27 26 19z"/>
<path d="M1772 599 c10 -5 22 -17 27 -27 9 -15 10 -14 11 6 0 13 -4 21 -9 17
-5 -3 -12 -1 -16 5 -3 5 -12 10 -18 10 -7 0 -4 -5 5 -11z"/>
<path d="M692 580 c0 -14 2 -19 5 -12 2 6 2 18 0 25 -3 6 -5 1 -5 -13z"/>
<path d="M1678 552 c-6 -21 -4 -22 53 -21 33 1 61 5 64 8 2 4 -20 5 -50 3 -45
-2 -54 0 -57 15 -3 15 -5 14 -10 -5z"/>
<path d="M1416 535 c-3 -8 -1 -15 4 -15 6 0 10 7 10 15 0 8 -2 15 -4 15 -2 0
-6 -7 -10 -15z"/>
<path d="M1791 504 c0 -11 3 -14 6 -6 3 7 2 16 -1 19 -3 4 -6 -2 -5 -13z"/>
<path d="M1650 496 c5 -5 36 -10 71 -12 34 -1 58 1 53 6 -12 11 -136 18 -124
6z"/>
</g>
</svg>
